<svg width="20" height="20" viewBox="0 0 20 20" fill="none" xmlns="http://www.w3.org/2000/svg">
<rect x="2" y="2" width="16" height="3" fill="#47BFE6"/>
<rect x="4" width="3" height="2" rx="1" fill="#1678DC"/>
<rect x="13" width="3" height="2" rx="1" fill="#1678DC"/>
<rect x="1.5" y="1.5" width="17" height="17" rx="1.5" stroke="#1678DC"/>
<path d="M5 7C5 6.44771 4.55228 6 4 6C3.44772 6 3 6.44772 3 7V16C3 16.5523 3.44772 17 4 17C4.55228 17 5 16.5523 5 16V7Z" fill="#1678DC"/>
<g opacity="0.3">
<path d="M8 7C8 6.44771 7.55228 6 7 6C6.44772 6 6 6.44772 6 7V16C6 16.5523 6.44772 17 7 17C7.55228 17 8 16.5523 8 16V7Z" fill="#47BFE6"/>
<path d="M11 7C11 6.44771 10.5523 6 10 6C9.44772 6 9 6.44772 9 7V16C9 16.5523 9.44772 17 10 17C10.5523 17 11 16.5523 11 16V7Z" fill="#47BFE6"/>
<path d="M14 7C14 6.44771 13.5523 6 13 6C12.4477 6 12 6.44772 12 7V16C12 16.5523 12.4477 17 13 17C13.5523 17 14 16.5523 14 16V7Z" fill="#47BFE6"/>
<path d="M17 7C17 6.44771 16.5523 6 16 6C15.4477 6 15 6.44772 15 7V16C15 16.5523 15.4477 17 16 17C16.5523 17 17 16.5523 17 16V7Z" fill="#47BFE6"/>
</g>
</svg>
