<svg width="20" height="21" viewBox="0 0 20 21" fill="none" xmlns="http://www.w3.org/2000/svg">
<path d="M9.99999 7.04492C8.0021 7.04492 6.37683 8.67019 6.37683 10.6681C6.37683 12.666 8.0021 14.2912 9.99999 14.2912C11.9979 14.2912 13.6232 12.666 13.6232 10.6681C13.6232 8.67019 11.9979 7.04492 9.99999 7.04492ZM9.99999 13.6294C8.36702 13.6294 7.03859 12.301 7.03859 10.668C7.03859 9.03503 8.36702 7.7066 9.99999 7.7066C11.633 7.7066 12.9614 9.03503 12.9614 10.668C12.9614 12.301 11.633 13.6294 9.99999 13.6294Z" fill="#1678DC" stroke="#1678DC" stroke-width="0.5"/>
<path d="M18.2495 8.77091H17.0286C16.989 8.77091 16.9542 8.7446 16.9436 8.7071C16.7905 8.1643 16.5729 7.63884 16.2964 7.14548C16.2771 7.11113 16.2831 7.06765 16.3112 7.0396L17.1748 6.176C17.3166 6.03419 17.3947 5.84575 17.3947 5.64534C17.3947 5.44476 17.3166 5.25647 17.1748 5.11467L15.5535 3.49336C15.2607 3.20061 14.7846 3.20061 14.492 3.49336L13.6284 4.35696C13.6003 4.385 13.5568 4.39099 13.5226 4.37177C13.029 4.0954 12.5037 3.87749 11.9609 3.72449C11.9234 3.71394 11.8971 3.67911 11.8971 3.63956V2.41859C11.8971 2.00449 11.5605 1.66797 11.1464 1.66797H8.85373C8.43963 1.66797 8.10311 2.00453 8.10311 2.41859V3.63956C8.10311 3.67911 8.0768 3.71394 8.0393 3.72449C7.49649 3.87733 6.97119 4.09524 6.47752 4.37177C6.44333 4.39099 6.39984 4.385 6.37179 4.35696L5.50819 3.49336C5.21544 3.20061 4.73942 3.20061 4.4467 3.49336L2.82539 5.11467C2.68358 5.25648 2.60543 5.44493 2.60543 5.64534C2.60543 5.84592 2.68358 6.0342 2.82539 6.176L3.68899 7.0396C3.71703 7.06765 3.72302 7.11113 3.7038 7.14533C3.42743 7.6388 3.20968 8.1643 3.05652 8.70711C3.04597 8.74461 3.01114 8.77092 2.9716 8.77092H1.75062C1.33653 8.77092 1 9.10747 1 9.52153V11.8144C1 12.2285 1.33656 12.565 1.75062 12.565H2.9716C3.01114 12.565 3.04597 12.5913 3.05652 12.6288C3.20968 13.1716 3.42727 13.6971 3.7038 14.1905C3.72302 14.2248 3.71703 14.2683 3.68899 14.2963L2.82539 15.1599C2.68358 15.3017 2.60543 15.4902 2.60543 15.6906C2.60543 15.8912 2.68358 16.0795 2.82539 16.2213L4.4467 17.8426C4.73946 18.1353 5.21559 18.1353 5.50819 17.8426L6.37179 16.979C6.39984 16.9509 6.44332 16.9449 6.47752 16.9642C6.97115 17.2405 7.49649 17.4585 8.0393 17.6114C8.0768 17.622 8.10311 17.6568 8.10311 17.6964V18.9174C8.10311 19.3314 8.43967 19.668 8.85373 19.668H11.1466C11.5607 19.668 11.8972 19.3314 11.8972 18.9174V17.6964C11.8972 17.6568 11.9235 17.622 11.961 17.6114C12.5038 17.4586 13.0291 17.2407 13.5228 16.9642C13.557 16.9449 13.6005 16.9509 13.6285 16.979L14.4921 17.8426C14.7849 18.1353 15.2609 18.1353 15.5536 17.8426L17.1749 16.2213C17.3167 16.0795 17.3949 15.891 17.3949 15.6906C17.3949 15.49 17.3167 15.3017 17.1749 15.1599L16.3113 14.2963C16.2833 14.2683 16.2773 14.2248 16.2965 14.1906C16.4349 13.9437 16.5584 13.6892 16.6665 13.4283C16.7746 13.1674 16.8672 12.9005 16.9438 12.6289C16.9544 12.5914 16.9892 12.5651 17.0287 12.5651H18.2497C18.6638 12.5651 19.0003 12.2285 19.0003 11.8144L19.0002 9.52157C19.0002 9.10748 18.6636 8.77095 18.2495 8.77095V8.77091ZM18.3384 11.8144C18.3384 11.8634 18.2985 11.9033 18.2495 11.9033H17.0286C16.8614 11.9033 16.7034 11.9594 16.5762 12.0556C16.4489 12.1521 16.3518 12.2885 16.3066 12.4494C16.1678 12.9419 15.9702 13.4189 15.7192 13.8668C15.5558 14.1585 15.6067 14.5275 15.8434 14.764L16.707 15.6276C16.7284 15.6492 16.733 15.6738 16.733 15.6905C16.733 15.7072 16.7284 15.7317 16.707 15.7533L15.0857 17.3746C15.051 17.4093 14.9946 17.4093 14.9599 17.3746L14.0963 16.511C13.8597 16.2744 13.4908 16.2233 13.1992 16.3869C12.7512 16.6379 12.2743 16.8356 11.7817 16.9743C11.46 17.065 11.2354 17.3619 11.2354 17.6964V18.9173C11.2354 18.9663 11.1956 19.0062 11.1466 19.0062H8.85371C8.80471 19.0062 8.76485 18.9663 8.76485 18.9173V17.6964C8.76485 17.362 8.54032 17.065 8.21873 16.9744C7.72619 16.8356 7.24925 16.638 6.80128 16.3871C6.6872 16.3231 6.56131 16.292 6.43604 16.292C6.2413 16.292 6.04828 16.3672 5.90425 16.5114L5.04065 17.375C5.00599 17.4096 4.94958 17.4096 4.91492 17.375L3.2936 15.7537C3.27217 15.7321 3.2676 15.7075 3.2676 15.6908C3.2676 15.6741 3.27217 15.6495 3.2936 15.6279L4.1572 14.7643C4.39386 14.5278 4.44491 14.1588 4.28136 13.8672C4.03036 13.4192 3.83262 12.9422 3.69398 12.4497C3.60307 12.1278 3.30622 11.9033 2.97172 11.9033H1.75074C1.70174 11.9033 1.66188 11.8634 1.66188 11.8144V9.52153C1.66188 9.47253 1.70174 9.43266 1.75074 9.43266H2.97172C3.30607 9.43266 3.60306 9.20813 3.69366 8.88655C3.83247 8.394 4.03006 7.91707 4.28104 7.46909C4.44443 7.17744 4.39354 6.80842 4.15688 6.57193L3.29328 5.70833C3.27185 5.68675 3.26728 5.66217 3.26728 5.64547C3.26728 5.62876 3.27185 5.60419 3.29328 5.5826L4.91459 3.96128C4.94926 3.92662 5.00566 3.92662 5.04033 3.96128L5.90393 4.82488C6.14059 5.06154 6.50946 5.11259 6.80109 4.94904C7.24902 4.69804 7.726 4.5003 8.21854 4.36166C8.54029 4.27091 8.76482 3.97406 8.76482 3.63956V2.41859C8.76482 2.36959 8.80468 2.32972 8.85368 2.32972H11.1466C11.1956 2.32972 11.2354 2.36959 11.2354 2.41859V3.63956C11.2354 3.97392 11.4599 4.27091 11.7815 4.3615C12.2741 4.50032 12.751 4.6979 13.199 4.94888C13.4906 5.11227 13.8595 5.06138 14.0961 4.82472L14.9597 3.96112C14.9944 3.92646 15.0508 3.92646 15.0855 3.96112L16.7068 5.58244C16.7282 5.60402 16.7328 5.6286 16.7328 5.6453C16.7328 5.66201 16.7282 5.68658 16.7068 5.70817L15.843 6.57177C15.6065 6.80828 15.5556 7.1773 15.719 7.46893C15.97 7.91687 16.1678 8.39384 16.3064 8.88639C16.3972 9.20813 16.694 9.43266 17.0285 9.43266H18.2495C18.2985 9.43266 18.3384 9.47252 18.3384 9.52153L18.3384 11.8144Z" fill="#1678DC" stroke="#1678DC" stroke-width="0.5"/>
</svg>
